<?xml version="1.0" encoding="utf-8"?>
<!-- Generator: Adobe Illustrator 19.0.0, SVG Export Plug-In . SVG Version: 6.00 Build 0)  -->
<svg version="1.1" id="Layer_1" xmlns="http://www.w3.org/2000/svg" xmlns:xlink="http://www.w3.org/1999/xlink" x="0px" y="0px"
	 width="625.4px" viewBox="631 -43.6 625.4 302.6" style="enable-background:new 631 -43.6 625.4 302.6;"
	 xml:space="preserve" aria-labelledby="GDGLogoTitle" role="img">
<style type="text/css">
	.st0{fill:#EA4335;}
	.st1{fill:#4285F4;}
	.st2{fill:#FBBC04;}
	.st3{fill:#0F9D58;}
</style>
<title id="GDGLogoTitle">GDG Logo</title>
<path class="st0" d="M779.9,108.3l101.6-58.6c23.9-13.8,32.1-44.4,18.3-68.3c-13.8-23.9-44.4-32.1-68.3-18.3L656,64.4L779.9,108.3z"
	/>
<path class="st1" d="M856.4,259c17.3,0,34.1-9,43.3-25c13.8-23.9,5.6-54.5-18.3-68.3L706,64.4c-23.9-13.8-54.5-5.6-68.3,18.3
	s-5.6,54.5,18.3,68.3l175.5,101.3C839.4,256.8,848,259,856.4,259L856.4,259z"/>
<path class="st2" d="M1031,259c8.5,0,17.1-2.2,24.9-6.7L1231.4,151l-122.3-44.8L1006,165.7c-23.9,13.8-32.1,44.4-18.3,68.3
	C996.9,250,1013.7,259,1031,259z"/>
<path class="st3" d="M1206.4,157.7c17.3,0,34.1-9,43.3-25c13.8-23.9,5.6-54.5-18.3-68.3L1055.9-36.9c-23.9-13.8-54.4-5.6-68.2,18.3
	s-5.6,54.5,18.3,68.3L1181.5,151C1189.3,155.5,1197.9,157.7,1206.4,157.7z"/>
</svg>
