<?xml version="1.0" encoding="utf-8"?>
<!-- Generator: Adobe Illustrator 21.1.0, SVG Export Plug-In . SVG Version: 6.00 Build 0)  -->
<svg version="1.1" id="Layer_1" xmlns="http://www.w3.org/2000/svg" xmlns:xlink="http://www.w3.org/1999/xlink" x="0px" y="0px"
	 viewBox="0 0 579.5 216" style="enable-background:new 0 0 579.5 216;" xml:space="preserve">
<style type="text/css">
	.st0{fill:#DC3A3A;}
	.st1{fill:#FFFFFF;}
</style>
<rect x="-2.6" y="-4.7" class="st0" width="585" height="224"/>
<path class="st1" d="M87.4,159.6h22.1V83.3H87.4V159.6z M87.4,73.6h22.1V56.4H87.4V73.6z"/>
<g>
	<path class="st1" d="M135.3,128.6c2.6,3,4.9,5.2,10.1,7.9c6.7,3.7,13.8,4.9,19.8,4.9c10.1,0,19.1-4.9,19.1-12
		c0-8.2-10.5-9.4-18-10.5c-5.6-0.7-11.2-1.5-16.8-2.6c-6.4-1.5-27.7-6-27.7-28.1c0-26.6,23.6-34.4,41.5-34.4
		c24,0,36.7,11.6,45.7,19.5l-19.1,13.5c-3.4-3.4-6-6-10.1-8.2c-3.7-1.9-10.1-4.5-16.8-4.5c-10.1,0-15.3,6-15.3,10.9
		c0,7.9,8.6,9,13.1,9.7c10.9,1.5,25.8,4.1,31.4,6c12,4.5,18,13.5,18,25.1c0,7.5-2.6,15.7-8.2,22.1c-9.4,10.9-24.3,13.8-38.5,13.8
		c-29.2,0-40.4-13.5-47.2-21L135.3,128.6z"/>
	<path class="st1" d="M291.8,140.2c-2.6,4.1-5.2,7.9-9.4,11.2c-6.7,6-16.5,10.9-28.8,10.9c-22.5,0-38.6-14.6-38.6-39.3
		c0-18.3,9-41.9,39.3-41.9c4.5,0,17.6,0.4,27.3,10.9c10.1,10.5,10.5,25.5,10.9,34.1h-54.3c0,9.4,5.2,19.1,17.2,19.1
		c12.4,0,16.5-7.9,19.1-13.5L291.8,140.2z M269.3,111.7c-0.4-3.4-1.1-7.5-4.1-10.9c-2.6-2.6-7.1-4.1-10.9-4.1
		c-5.2,0-9.4,2.6-11.2,4.9c-3,3.4-3.7,6.7-4.5,10.1H269.3z"/>
	<path class="st1" d="M299.6,105c0.4-5.2,1.1-11.6,7.9-16.8c7.1-5.6,16.1-6.7,25.1-6.7c9.4,0,31.8,2.2,31.8,22.1V148
		c0,8.2,0.4,9.4,2.2,12h-22.1v-7.1c-5.6,4.1-12,9-23.2,9c-17.6,0-25.1-12.7-25.1-23.2c0-12.4,9.7-19.1,16.1-22.1
		c6-2.6,20.6-5.2,29.9-7.1v-4.1c-0.4-3.4-0.7-9.4-8.6-9.4c-10.1,0-11.2,6-12,9H299.6z M328.1,127.8c-3.7,1.5-9.7,3.7-9.7,9.4
		c0,3.7,3.4,7.9,8.6,7.9c2.6,0,5.2-1.1,7.9-2.6c7.5-4.5,7.9-11.6,7.9-19.5L328.1,127.8z"/>
	<path class="st1" d="M381.2,61.2h22.5v24h14.6V99h-15v34.4c0,4.5,0,8.6,6,8.6l7.9-0.4v17.6c-4.9,0.7-7.9,1.1-12,1.1
		c-7.9,0-16.1-0.4-21-7.5c-3-4.5-3.4-10.1-3.4-17.2V99h-11.2V85.2h11.2v-24H381.2z"/>
	<polygon class="st1" points="425.4,83.3 490.5,83.3 490.5,100.5 450.1,142.1 490.5,142.1 490.5,159.6 420.9,159.6 420.9,142.8 
		462,100.9 425.4,100.9 	"/>
</g>
</svg>
