<?xml version="1.0" standalone="no"?>
<!DOCTYPE svg PUBLIC "-//W3C//DTD SVG 20010904//EN"
 "http://www.w3.org/TR/2001/REC-SVG-20010904/DTD/svg10.dtd">
<svg version="1.0" xmlns="http://www.w3.org/2000/svg"
 width="1954.000000pt" height="1954.000000pt" viewBox="0 0 1954.000000 1954.000000"
 preserveAspectRatio="xMidYMid meet">
<metadata>
Created by potrace 1.11, written by Peter Selinger 2001-2013
</metadata>
<g transform="translate(0.000000,1954.000000) scale(0.100000,-0.100000)"
fill="#000000" stroke="none">
<path d="M6890 14493 c-271 -38 -460 -104 -695 -243 -27 -16 -63 -37 -80 -46
-16 -9 -110 -63 -208 -120 -98 -57 -181 -104 -184 -104 -4 0 -14 -6 -22 -14
-9 -7 -41 -27 -71 -43 -30 -17 -158 -90 -285 -163 -126 -74 -241 -140 -255
-147 -14 -8 -38 -22 -55 -32 -28 -17 -413 -239 -1010 -584 -143 -83 -314 -182
-380 -220 -66 -38 -136 -78 -155 -89 -19 -11 -53 -31 -75 -43 -22 -13 -110
-63 -195 -113 -85 -49 -171 -99 -190 -110 -19 -10 -122 -70 -228 -131 -106
-61 -207 -120 -225 -130 -136 -77 -447 -257 -469 -272 -15 -11 -29 -19 -31
-19 -3 0 -125 -70 -272 -155 -147 -85 -271 -155 -276 -155 -5 0 -9 -4 -9 -9 0
-5 -8 -11 -17 -14 -10 -3 -40 -19 -68 -35 -27 -16 -185 -107 -350 -202 -282
-162 -438 -258 -494 -305 -75 -61 -201 -190 -256 -260 -215 -276 -325 -584
-330 -930 -4 -243 32 -436 121 -645 77 -183 175 -330 322 -484 58 -60 174
-158 227 -192 17 -10 32 -21 35 -24 4 -5 177 -106 585 -340 17 -10 71 -41 120
-70 50 -29 108 -62 130 -74 22 -13 128 -74 235 -136 107 -62 209 -121 225
-130 17 -10 54 -31 83 -49 29 -17 55 -31 58 -31 3 0 18 -8 32 -19 15 -10 44
-28 64 -39 65 -37 506 -291 723 -417 116 -67 244 -141 285 -165 41 -23 89 -50
105 -60 72 -41 363 -210 395 -228 19 -11 58 -33 85 -47 28 -15 57 -33 66 -41
8 -8 19 -14 22 -14 4 0 40 -20 80 -44 39 -24 92 -54 117 -68 25 -14 86 -49
135 -78 50 -29 108 -62 130 -75 22 -12 127 -73 233 -134 106 -61 207 -120 226
-130 18 -11 44 -25 57 -33 13 -7 31 -18 39 -24 8 -7 40 -25 70 -41 30 -17 154
-87 275 -158 233 -135 263 -152 323 -186 20 -12 51 -30 67 -40 17 -11 37 -22
45 -26 8 -4 38 -20 65 -36 28 -17 64 -38 80 -47 17 -9 102 -59 190 -110 450
-263 663 -331 1015 -325 259 5 421 43 660 157 155 73 311 187 438 318 54 55
192 232 192 246 0 4 6 15 14 23 18 22 90 163 119 236 39 96 66 191 83 285 3
14 7 32 9 40 19 71 23 287 8 420 -17 154 -32 219 -84 367 -79 224 -199 408
-384 589 -121 118 -213 181 -535 366 -358 207 -603 348 -850 491 -124 72 -238
138 -253 146 -16 9 -36 21 -45 26 -32 19 -297 173 -334 194 -64 36 -101 57
-156 90 -29 17 -57 31 -62 31 -6 0 -10 4 -10 8 0 4 -12 13 -27 20 -16 7 -37
18 -48 25 -11 6 -47 27 -80 46 -112 64 -400 231 -415 241 -8 6 -22 13 -30 17
-8 4 -31 16 -50 28 -19 12 -55 33 -80 47 -80 45 -414 239 -438 255 -23 14 -17
18 215 152 131 76 283 164 338 196 329 190 434 251 470 270 22 12 87 50 143
83 57 34 106 62 108 62 2 0 43 24 91 53 48 29 126 75 173 101 47 26 100 56
118 67 38 22 408 236 462 266 19 11 163 94 320 185 157 91 299 173 315 182 17
9 46 26 65 37 19 12 96 56 171 100 188 108 221 129 324 211 151 120 295 291
393 468 25 46 107 233 113 258 1 4 3 12 5 17 11 35 41 162 49 210 22 129 28
369 12 451 -4 16 -9 47 -12 69 -27 188 -115 415 -232 594 -195 301 -474 515
-818 629 -66 22 -138 43 -159 46 -21 4 -48 8 -60 11 -12 3 -34 7 -51 11 -34 7
-336 12 -375 7z"/>
<path d="M12340 14493 c-41 -6 -183 -31 -215 -38 -62 -12 -243 -79 -320 -117
-308 -154 -550 -397 -704 -705 -45 -91 -105 -244 -115 -296 -3 -12 -12 -55
-20 -96 -28 -127 -36 -279 -23 -441 8 -104 13 -134 37 -230 90 -358 282 -652
569 -873 77 -60 196 -132 540 -329 129 -73 545 -314 744 -430 130 -76 240
-138 243 -138 3 0 18 -8 32 -19 15 -10 47 -29 72 -43 25 -14 128 -74 230 -133
102 -59 203 -117 225 -130 22 -12 56 -31 75 -43 19 -12 49 -29 65 -37 17 -9
44 -24 60 -34 17 -10 86 -51 155 -90 69 -39 132 -76 140 -81 17 -10 361 -209
431 -249 221 -127 288 -167 289 -171 0 -4 -157 -97 -289 -170 -25 -14 -65 -38
-88 -53 -24 -15 -45 -27 -48 -27 -3 0 -38 -20 -78 -44 -39 -24 -92 -54 -117
-68 -25 -14 -153 -88 -285 -165 -132 -76 -247 -142 -255 -146 -8 -4 -24 -13
-35 -20 -73 -45 -147 -87 -151 -87 -3 0 -18 -8 -32 -19 -15 -10 -47 -29 -72
-43 -25 -14 -90 -51 -145 -83 -233 -135 -818 -473 -965 -557 -92 -53 -438
-253 -540 -313 -102 -59 -166 -102 -250 -169 -88 -71 -224 -223 -309 -346 -98
-143 -197 -394 -236 -600 -33 -176 -22 -450 26 -635 33 -127 66 -211 131 -340
35 -69 130 -220 147 -235 3 -3 18 -21 33 -40 14 -20 54 -64 88 -99 218 -219
474 -362 770 -430 133 -31 145 -32 320 -36 313 -6 547 57 850 230 195 111 523
300 655 378 66 38 149 86 185 107 36 21 137 79 225 131 88 51 169 97 180 103
22 12 280 161 323 187 15 9 133 77 262 151 129 74 258 148 285 165 28 16 57
32 65 36 8 4 29 15 45 26 17 10 46 27 65 38 19 11 368 213 775 448 407 236
758 438 781 450 22 13 59 35 82 49 23 14 43 26 46 26 2 0 33 17 67 38 35 22
84 50 109 64 25 14 61 34 80 45 885 510 1171 676 1245 722 411 256 675 670
734 1151 9 77 7 337 -4 400 -50 298 -159 547 -336 765 -58 72 -161 176 -214
217 -16 12 -36 29 -44 36 -16 15 -148 104 -171 115 -8 4 -30 17 -49 28 -19 11
-136 79 -260 151 -124 71 -257 148 -296 171 -38 23 -79 47 -90 53 -11 5 -110
62 -220 126 -110 64 -216 125 -235 135 -19 11 -118 69 -220 128 -102 59 -203
117 -225 129 -55 31 -140 80 -252 148 -34 21 -64 38 -66 38 -2 0 -80 44 -173
98 -93 54 -189 110 -214 124 -50 28 -147 84 -170 98 -16 10 -101 59 -160 93
-59 33 -171 97 -265 152 -71 42 -694 402 -840 485 -16 10 -158 92 -315 182
-157 91 -298 172 -315 182 -16 9 -43 25 -60 35 -16 10 -50 29 -75 43 -25 14
-85 49 -135 78 -97 57 -137 80 -187 108 -52 30 -289 168 -328 191 -19 11 -42
24 -50 28 -8 4 -75 42 -150 86 -361 212 -565 277 -885 282 -88 1 -171 0 -185
-2z"/>
</g>
</svg>
